<svg xmlns="http://www.w3.org/2000/svg" width="20" height="20" viewBox="0 0 20 20">
    <path fill="#FFF" fill-rule="evenodd" d="M16.355 16.954h-2.993v-4.817c0-1.21-.433-2.037-1.517-2.037-.826 0-1.32.559-1.536 1.096-.08.193-.099.459-.099.73v5.028H7.218s.038-8.16 0-9.004h2.992v1.275c.4-.614 1.11-1.486 2.699-1.486 1.969 0 3.446 1.286 3.446 4.052v5.163zM4.065 6.72h-.02c-1.004 0-1.654-.693-1.654-1.556 0-.883.67-1.557 1.693-1.557 1.024 0 1.655.674 1.674 1.557 0 .863-.65 1.556-1.694 1.556zM2.567 16.954h2.994V7.95H2.568v9.004zM2 20h16a2 2 0 0 0 2-2V2a2 2 0 0 0-2-2H2a2 2 0 0 0-2 2v16a2 2 0 0 0 2 2z" opacity=".8"/>
</svg>
